<svg width="32" height="32" viewBox="0 0 32 32" fill="none" xmlns="http://www.w3.org/2000/svg">
<path d="M31.628 6.54703C31.397 6.41303 31.114 6.41303 30.884 6.54703L16 15.141L1.116 6.54703C0.885 6.41303 0.602 6.41303 0.372 6.54703C0.142 6.68003 0 6.92603 0 7.19203V24.808C0 25.074 0.142 25.32 0.372 25.452C0.487 25.519 0.616 25.552 0.744 25.552C0.872 25.552 1.001 25.519 1.116 25.452L16 16.859L30.884 25.452C30.999 25.519 31.128 25.552 31.256 25.552C31.384 25.552 31.513 25.519 31.628 25.452C31.858 25.32 32 25.074 32 24.808V7.19203C32 6.92603 31.858 6.68003 31.628 6.54703Z" fill="#6A6A6A"/>
</svg>
