<svg version="1.2" baseProfile="tiny" viewBox="0 0 43.52 13.244" xmlns:xlink="http://www.w3.org/1999/xlink" xmlns="http://www.w3.org/2000/svg">
<path style="fill:#ffffff;" d="M27.1169,4.1422C27.297,4.1422,27.3262,4.3533,27.3262,4.6525C27.3262,5.3128,27.4798,5.7,28.3459,5.8541C34.6171,6.9637,34.8112,7.2319,34.8112,8.0863C34.8112,8.0863,34.8112,10.4355,34.8112,11.0989C34.8112,11.7632,34.2072,12.2445,33.2432,12.2445L10.2759,12.2445L10.2759,12.2445C9.312,12.2445,8.7088,11.7642,8.7088,11.0989C8.7088,10.4355,8.7088,8.0863,8.7088,8.0863C8.7088,7.2319,8.902,6.9637,15.1719,5.8541C16.0389,5.7,16.1929,5.3128,16.1929,4.6525C16.1929,4.3533,16.223,4.1422,16.4031,4.1422C16.582,4.1422,26.938,4.1422,27.1169,4.1422Z"/>
</svg>