<svg version="1.2" baseProfile="tiny" id="EdgeSVG_8D3jv" x="0px" y="0px" width="43.52px" height="13.237px" viewBox="0 0 43.52 13.237" xmlns:xlink="http://www.w3.org/1999/xlink" xmlns="http://www.w3.org/2000/svg">
  <linearGradient id="SVGID_1_" gradientUnits="userSpaceOnUse" x1="7.709" y1="6.6187" x2="35.8105" y2="6.6187">
    <stop offset="0" style="stop-color:#000000;stop-opacity:0.5"/>
    <stop offset="1" style="stop-color:#000000;stop-opacity:0.5"/>
  </linearGradient>
  <path fill="url(#SVGID_1_)" d="M28.521,4.866c-0.087-0.016-0.147-0.031-0.188-0.045c-0.003-0.039-0.007-0.094-0.007-0.172&#xD;&#xA;&#x9;&#x9;c0-0.718-0.252-1.095-0.528-1.293V0h-12.08v3.358c-0.276,0.199-0.526,0.576-0.526,1.291c0,0.078-0.003,0.133-0.006,0.171&#xD;&#xA;&#x9;&#x9;c-0.041,0.015-0.101,0.03-0.188,0.046C8.982,5.931,7.709,6.221,7.709,8.082v3.011c0,1.242,1.08,2.145,2.567,2.145h22.966&#xD;&#xA;&#x9;&#x9;c1.488,0,2.568-0.902,2.568-2.145V8.082C35.811,6.221,34.537,5.931,28.521,4.866z"/>
</svg>